<mxfile host="65bd71144e" pages="2">
    <diagram id="DKcRpeNJdsuaideDCJwY" name="Key Class">
        <mxGraphModel dx="334" dy="666" grid="1" gridSize="10" guides="1" tooltips="1" connect="1" arrows="1" fold="1" page="1" pageScale="1" pageWidth="827" pageHeight="1169" math="0" shadow="0">
            <root>
                <mxCell id="0"/>
                <mxCell id="1" parent="0"/>
                <mxCell id="WBvDVSuLdx9mDm0OxAEK-1" value="" style="rounded=0;whiteSpace=wrap;html=1;fontFamily=Helvetica;fontSize=11;fontColor=default;labelBackgroundColor=default;dashed=1;" parent="1" vertex="1">
                    <mxGeometry x="10" y="36" width="224" height="113" as="geometry"/>
                </mxCell>
                <mxCell id="WBvDVSuLdx9mDm0OxAEK-2" style="edgeStyle=none;shape=connector;rounded=0;jumpSize=4;orthogonalLoop=1;jettySize=auto;html=1;exitX=1;exitY=0.5;exitDx=0;exitDy=0;entryX=0;entryY=0.5;entryDx=0;entryDy=0;strokeColor=default;align=center;verticalAlign=middle;fontFamily=Helvetica;fontSize=11;fontColor=default;labelBackgroundColor=default;startSize=4;endArrow=blockThin;endFill=1;endSize=4;" parent="1" source="WBvDVSuLdx9mDm0OxAEK-3" target="WBvDVSuLdx9mDm0OxAEK-4" edge="1">
                    <mxGeometry relative="1" as="geometry"/>
                </mxCell>
                <mxCell id="WBvDVSuLdx9mDm0OxAEK-3" value="&lt;br&gt;" style="rounded=0;fontFamily=Helvetica;fontSize=12;fontStyle=1;rotation=0;align=center;verticalAlign=middle;labelPosition=center;verticalLabelPosition=middle;html=1;whiteSpace=wrap;fillColor=#FFCCCC;" parent="1" vertex="1">
                    <mxGeometry x="74.5" y="59" width="72" height="66" as="geometry"/>
                </mxCell>
                <mxCell id="WBvDVSuLdx9mDm0OxAEK-4" value="" style="rounded=0;fontFamily=Times New Roman;fontSize=12;fontStyle=1;rotation=0;html=1;whiteSpace=wrap;fillColor=#E5CCFF;" parent="1" vertex="1">
                    <mxGeometry x="158.5" y="39" width="72" height="106" as="geometry"/>
                </mxCell>
                <mxCell id="WBvDVSuLdx9mDm0OxAEK-5" value="Rename&lt;div&gt;&lt;span style=&quot;background-color: initial; font-weight: normal;&quot;&gt;Stage&lt;/span&gt;&lt;/div&gt;" style="rounded=0;fontFamily=Times New Roman;fontSize=12;fontStyle=1;rotation=0;strokeColor=none;fillColor=none;html=1;whiteSpace=wrap;" parent="1" vertex="1">
                    <mxGeometry x="174" y="12" width="40" height="18" as="geometry"/>
                </mxCell>
                <mxCell id="WBvDVSuLdx9mDm0OxAEK-6" value="&lt;span style=&quot;font-weight: normal;&quot;&gt;From&lt;/span&gt;&lt;div&gt;&lt;span style=&quot;background-color: initial;&quot;&gt;IBuffer&lt;/span&gt;&lt;/div&gt;" style="rounded=0;fontFamily=Times New Roman;fontSize=12;fontStyle=1;rotation=0;strokeColor=none;fillColor=none;html=1;whiteSpace=wrap;" parent="1" vertex="1">
                    <mxGeometry x="18.379999999999995" y="11.5" width="40.75" height="17" as="geometry"/>
                </mxCell>
                <mxCell id="WBvDVSuLdx9mDm0OxAEK-7" value="Decode&lt;div&gt;&lt;span style=&quot;font-weight: normal; background-color: initial;&quot;&gt;Stage&lt;/span&gt;&lt;/div&gt;" style="rounded=0;fontFamily=Times New Roman;fontSize=12;fontStyle=1;rotation=0;strokeColor=none;fillColor=none;html=1;whiteSpace=wrap;" parent="1" vertex="1">
                    <mxGeometry x="95" y="10" width="33" height="20" as="geometry"/>
                </mxCell>
                <mxCell id="WBvDVSuLdx9mDm0OxAEK-8" style="edgeStyle=none;shape=connector;rounded=0;jumpSize=4;orthogonalLoop=1;jettySize=auto;html=1;exitX=1;exitY=0.5;exitDx=0;exitDy=0;entryX=0;entryY=0.5;entryDx=0;entryDy=0;strokeColor=default;align=center;verticalAlign=middle;fontFamily=Helvetica;fontSize=11;fontColor=default;labelBackgroundColor=default;startSize=4;endArrow=blockThin;endFill=1;endSize=4;" parent="1" source="WBvDVSuLdx9mDm0OxAEK-12" target="WBvDVSuLdx9mDm0OxAEK-3" edge="1">
                    <mxGeometry relative="1" as="geometry">
                        <mxPoint x="61" y="92" as="sourcePoint"/>
                    </mxGeometry>
                </mxCell>
                <mxCell id="WBvDVSuLdx9mDm0OxAEK-9" value="CfCtrl" style="rounded=0;fontFamily=Helvetica;fontSize=12;fontStyle=1;rotation=0;strokeColor=none;fillColor=none;html=1;whiteSpace=wrap;" parent="1" vertex="1">
                    <mxGeometry x="94" y="57" width="33" height="20" as="geometry"/>
                </mxCell>
                <mxCell id="WBvDVSuLdx9mDm0OxAEK-10" value="CtrlFlow" style="rounded=0;fontFamily=Helvetica;fontSize=12;fontStyle=1;rotation=0;html=1;whiteSpace=wrap;fillColor=#D5E8D4;" parent="1" vertex="1">
                    <mxGeometry x="80.5" y="76" width="60" height="20" as="geometry"/>
                </mxCell>
                <mxCell id="WBvDVSuLdx9mDm0OxAEK-11" value="CtrlSignals" style="rounded=0;fontFamily=Helvetica;fontSize=12;fontStyle=1;rotation=0;html=1;whiteSpace=wrap;fillColor=#99CCFF;" parent="1" vertex="1">
                    <mxGeometry x="77.5" y="100" width="66" height="20" as="geometry"/>
                </mxCell>
                <mxCell id="WBvDVSuLdx9mDm0OxAEK-12" value="CtrlFlow" style="rounded=0;fontFamily=Helvetica;fontSize=12;fontStyle=1;rotation=0;html=1;whiteSpace=wrap;fillColor=#D5E8D4;" parent="1" vertex="1">
                    <mxGeometry x="13.5" y="82" width="48.63" height="20" as="geometry"/>
                </mxCell>
                <mxCell id="WBvDVSuLdx9mDm0OxAEK-13" value="MicroOp" style="rounded=0;fontFamily=Helvetica;fontSize=12;fontStyle=1;rotation=0;strokeColor=none;fillColor=none;html=1;whiteSpace=wrap;" parent="1" vertex="1">
                    <mxGeometry x="169.5" y="38" width="51" height="17" as="geometry"/>
                </mxCell>
                <mxCell id="WBvDVSuLdx9mDm0OxAEK-14" value="CfCtrl" style="rounded=0;fontFamily=Helvetica;fontSize=12;fontStyle=1;rotation=0;html=1;whiteSpace=wrap;fillColor=#FFCCCC;" parent="1" vertex="1">
                    <mxGeometry x="164.5" y="55" width="60" height="20" as="geometry"/>
                </mxCell>
                <mxCell id="WBvDVSuLdx9mDm0OxAEK-15" value="RobPtr" style="rounded=0;fontFamily=Helvetica;fontSize=12;fontStyle=1;rotation=0;html=1;whiteSpace=wrap;fillColor=#FFFFCC;" parent="1" vertex="1">
                    <mxGeometry x="164.5" y="77" width="60" height="16" as="geometry"/>
                </mxCell>
                <mxCell id="WBvDVSuLdx9mDm0OxAEK-16" value="LqPtr" style="rounded=0;fontFamily=Helvetica;fontSize=12;fontStyle=1;rotation=0;html=1;whiteSpace=wrap;fillColor=#FFFFCC;" parent="1" vertex="1">
                    <mxGeometry x="164.5" y="95" width="60" height="16" as="geometry"/>
                </mxCell>
                <mxCell id="WBvDVSuLdx9mDm0OxAEK-17" value="SqPtr" style="rounded=0;fontFamily=Helvetica;fontSize=12;fontStyle=1;rotation=0;html=1;whiteSpace=wrap;fillColor=#FFFFCC;" parent="1" vertex="1">
                    <mxGeometry x="164.5" y="113" width="60" height="16" as="geometry"/>
                </mxCell>
                <mxCell id="WBvDVSuLdx9mDm0OxAEK-18" value="··· ···" style="rounded=0;fontFamily=Times New Roman;fontSize=12;fontStyle=1;rotation=0;strokeColor=none;fillColor=none;html=1;whiteSpace=wrap;" parent="1" vertex="1">
                    <mxGeometry x="177.5" y="132" width="34" height="10" as="geometry"/>
                </mxCell>
                <mxCell id="WBvDVSuLdx9mDm0OxAEK-19" value="" style="rounded=0;fontFamily=Times New Roman;fontSize=12;fontStyle=1;rotation=0;html=1;whiteSpace=wrap;fillColor=#99FFCC;" parent="1" vertex="1">
                    <mxGeometry x="237" y="49" width="89" height="87" as="geometry"/>
                </mxCell>
                <mxCell id="WBvDVSuLdx9mDm0OxAEK-20" value="Redirect" style="rounded=0;fontFamily=Helvetica;fontSize=12;fontStyle=1;rotation=0;strokeColor=none;fillColor=none;html=1;whiteSpace=wrap;" parent="1" vertex="1">
                    <mxGeometry x="256" y="48" width="51" height="17" as="geometry"/>
                </mxCell>
                <mxCell id="WBvDVSuLdx9mDm0OxAEK-21" value="CfiUpdateInfo" style="rounded=0;fontFamily=Helvetica;fontSize=12;fontStyle=1;rotation=0;html=1;whiteSpace=wrap;fillColor=#FF8000;" parent="1" vertex="1">
                    <mxGeometry x="240" y="65" width="83" height="20" as="geometry"/>
                </mxCell>
                <mxCell id="WBvDVSuLdx9mDm0OxAEK-22" value="RobPtr" style="rounded=0;fontFamily=Helvetica;fontSize=12;fontStyle=1;rotation=0;html=1;whiteSpace=wrap;fillColor=#FFFFCC;" parent="1" vertex="1">
                    <mxGeometry x="251.5" y="87" width="60" height="16" as="geometry"/>
                </mxCell>
                <mxCell id="WBvDVSuLdx9mDm0OxAEK-23" value="FtqPtr" style="rounded=0;fontFamily=Helvetica;fontSize=12;fontStyle=1;rotation=0;html=1;whiteSpace=wrap;fillColor=#FFFFCC;" parent="1" vertex="1">
                    <mxGeometry x="251.5" y="105" width="60" height="16" as="geometry"/>
                </mxCell>
                <mxCell id="WBvDVSuLdx9mDm0OxAEK-24" value="··· ···" style="rounded=0;fontFamily=Times New Roman;fontSize=12;fontStyle=1;rotation=0;strokeColor=none;fillColor=none;html=1;whiteSpace=wrap;" parent="1" vertex="1">
                    <mxGeometry x="264.5" y="123" width="34" height="10" as="geometry"/>
                </mxCell>
            </root>
        </mxGraphModel>
    </diagram>
    <diagram id="0-8_fVE7zqGLF3BZ0gJ6" name="Wakeup">
        <mxGraphModel dx="361" dy="476" grid="1" gridSize="10" guides="1" tooltips="1" connect="1" arrows="1" fold="1" page="1" pageScale="1" pageWidth="1169" pageHeight="827" background="none" math="0" shadow="0">
            <root>
                <mxCell id="0"/>
                <mxCell id="1" parent="0"/>
                <mxCell id="FTZIcdEAymaVpWYv-aFH-8" value="" style="rounded=0;fillColor=none;html=1;whiteSpace=wrap;" parent="1" vertex="1">
                    <mxGeometry x="200" y="10" width="240" height="190" as="geometry"/>
                </mxCell>
                <mxCell id="FTZIcdEAymaVpWYv-aFH-109" style="edgeStyle=orthogonalEdgeStyle;rounded=0;orthogonalLoop=1;jettySize=auto;html=1;exitX=1;exitY=0.5;exitDx=0;exitDy=0;entryX=0.5;entryY=0;entryDx=0;entryDy=0;endArrow=blockThin;endFill=1;endSize=4;startSize=4;jumpSize=4;" parent="1" source="FTZIcdEAymaVpWYv-aFH-12" target="FTZIcdEAymaVpWYv-aFH-103" edge="1">
                    <mxGeometry relative="1" as="geometry">
                        <Array as="points">
                            <mxPoint x="370" y="60"/>
                        </Array>
                    </mxGeometry>
                </mxCell>
                <mxCell id="FTZIcdEAymaVpWYv-aFH-12" value="" style="rounded=0;fillColor=#D0D0D0;html=1;whiteSpace=wrap;" parent="1" vertex="1">
                    <mxGeometry x="200" y="30" width="130" height="60" as="geometry"/>
                </mxCell>
                <mxCell id="FTZIcdEAymaVpWYv-aFH-14" value="_valid&lt;b style=&quot;&quot;&gt;&lt;font face=&quot;Times New Roman&quot;&gt;(&lt;/font&gt;&lt;font face=&quot;Helvetica&quot;&gt;ValidIO&lt;/font&gt;&lt;font face=&quot;Times New Roman&quot;&gt;)&lt;/font&gt;&lt;/b&gt;" style="rounded=0;fillColor=none;strokeColor=none;fontFamily=Droid Sans Mono;fontSource=https%3A%2F%2Ffonts.googleapis.com%2Fcss%3Ffamily%3DDroid%2BSans%2BMono;fontSize=7;html=1;whiteSpace=wrap;" parent="1" vertex="1">
                    <mxGeometry x="215" y="34" width="64" height="10" as="geometry"/>
                </mxCell>
                <mxCell id="FTZIcdEAymaVpWYv-aFH-15" value="" style="endArrow=blockThin;html=1;rounded=0;endFill=1;endSize=4;startSize=4;jumpSize=4;" parent="1" edge="1">
                    <mxGeometry width="50" height="50" relative="1" as="geometry">
                        <mxPoint x="200" y="40" as="sourcePoint"/>
                        <mxPoint x="220" y="40" as="targetPoint"/>
                    </mxGeometry>
                </mxCell>
                <mxCell id="FTZIcdEAymaVpWYv-aFH-16" value="" style="endArrow=blockThin;html=1;rounded=0;endFill=1;endSize=4;startSize=4;jumpSize=4;" parent="1" edge="1">
                    <mxGeometry width="50" height="50" relative="1" as="geometry">
                        <mxPoint x="200" y="49.85000000000002" as="sourcePoint"/>
                        <mxPoint x="220" y="49.85000000000002" as="targetPoint"/>
                    </mxGeometry>
                </mxCell>
                <mxCell id="FTZIcdEAymaVpWYv-aFH-17" value="" style="endArrow=blockThin;html=1;rounded=0;endFill=1;endSize=4;startSize=4;jumpSize=4;" parent="1" edge="1">
                    <mxGeometry width="50" height="50" relative="1" as="geometry">
                        <mxPoint x="200" y="60" as="sourcePoint"/>
                        <mxPoint x="220" y="59.93000000000001" as="targetPoint"/>
                    </mxGeometry>
                </mxCell>
                <mxCell id="FTZIcdEAymaVpWYv-aFH-22" value="" style="endArrow=blockThin;html=1;rounded=0;endFill=1;endSize=4;startSize=4;jumpSize=4;" parent="1" edge="1">
                    <mxGeometry width="50" height="50" relative="1" as="geometry">
                        <mxPoint x="200" y="70" as="sourcePoint"/>
                        <mxPoint x="220" y="69.93" as="targetPoint"/>
                    </mxGeometry>
                </mxCell>
                <mxCell id="FTZIcdEAymaVpWYv-aFH-23" value="" style="endArrow=blockThin;html=1;rounded=0;endFill=1;endSize=4;startSize=4;jumpSize=4;" parent="1" edge="1">
                    <mxGeometry width="50" height="50" relative="1" as="geometry">
                        <mxPoint x="200" y="80" as="sourcePoint"/>
                        <mxPoint x="220" y="79.93" as="targetPoint"/>
                    </mxGeometry>
                </mxCell>
                <mxCell id="FTZIcdEAymaVpWYv-aFH-24" value="&lt;font style=&quot;font-size: 7px;&quot;&gt;_bits_ctrl_rfWen&lt;b style=&quot;&quot;&gt;&lt;font face=&quot;Helvetica&quot;&gt;(CtrlSignals)&lt;/font&gt;&lt;/b&gt;&lt;/font&gt;" style="rounded=0;fillColor=none;strokeColor=none;fontFamily=Droid Sans Mono;fontSource=https%3A%2F%2Ffonts.googleapis.com%2Fcss%3Ffamily%3DDroid%2BSans%2BMono;fontSize=7;html=1;whiteSpace=wrap;" parent="1" vertex="1">
                    <mxGeometry x="217" y="44" width="116" height="10" as="geometry"/>
                </mxCell>
                <mxCell id="FTZIcdEAymaVpWYv-aFH-25" value="_bits_pdest&lt;b style=&quot;&quot;&gt;&lt;font face=&quot;Helvetica&quot;&gt;(MicroOp)&lt;/font&gt;&lt;/b&gt;" style="rounded=0;fillColor=none;strokeColor=none;fontFamily=Droid Sans Mono;fontSource=https%3A%2F%2Ffonts.googleapis.com%2Fcss%3Ffamily%3DDroid%2BSans%2BMono;fontSize=7;html=1;whiteSpace=wrap;" parent="1" vertex="1">
                    <mxGeometry x="218" y="54" width="85" height="10" as="geometry"/>
                </mxCell>
                <mxCell id="FTZIcdEAymaVpWYv-aFH-26" value="_bits_robIdx_flag&lt;font face=&quot;Helvetica&quot;&gt;&lt;b style=&quot;&quot;&gt;(RobPtr&lt;/b&gt;&lt;b style=&quot;&quot;&gt;)&lt;/b&gt;&lt;/font&gt;" style="rounded=0;fillColor=none;strokeColor=none;fontFamily=Droid Sans Mono;fontSource=https%3A%2F%2Ffonts.googleapis.com%2Fcss%3Ffamily%3DDroid%2BSans%2BMono;fontSize=7;html=1;whiteSpace=wrap;" parent="1" vertex="1">
                    <mxGeometry x="218" y="64" width="105" height="10" as="geometry"/>
                </mxCell>
                <mxCell id="FTZIcdEAymaVpWYv-aFH-27" value="_bits_robIdx_value&lt;b style=&quot;&quot;&gt;&lt;font face=&quot;Helvetica&quot;&gt;(RobPtr)&lt;/font&gt;&lt;/b&gt;" style="rounded=0;fillColor=none;strokeColor=none;fontFamily=Droid Sans Mono;fontSource=https%3A%2F%2Ffonts.googleapis.com%2Fcss%3Ffamily%3DDroid%2BSans%2BMono;fontSize=7;html=1;whiteSpace=wrap;" parent="1" vertex="1">
                    <mxGeometry x="219" y="73" width="106.6" height="10" as="geometry"/>
                </mxCell>
                <mxCell id="FTZIcdEAymaVpWYv-aFH-28" value="&lt;div&gt;&lt;span style=&quot;font-weight: normal;&quot;&gt;From&lt;/span&gt;&amp;nbsp;&lt;span style=&quot;background-color: initial;&quot;&gt;&lt;i&gt;Issue Queue&lt;/i&gt;&lt;/span&gt;&lt;/div&gt;&lt;div&gt;&lt;font face=&quot;Helvetica&quot;&gt;MicroOp&lt;/font&gt;&amp;nbsp;&lt;span style=&quot;background-color: initial; font-weight: normal;&quot;&gt;io_in&lt;/span&gt;&lt;/div&gt;" style="rounded=0;fontFamily=Times New Roman;fontSize=12;fontStyle=1;rotation=0;html=1;whiteSpace=wrap;fillColor=#E5CCFF;" parent="1" vertex="1">
                    <mxGeometry x="90" y="45" width="110" height="30" as="geometry"/>
                </mxCell>
                <mxCell id="FTZIcdEAymaVpWYv-aFH-112" style="edgeStyle=orthogonalEdgeStyle;shape=connector;rounded=0;jumpSize=4;orthogonalLoop=1;jettySize=auto;html=1;exitX=1;exitY=0.5;exitDx=0;exitDy=0;entryX=1;entryY=0.5;entryDx=0;entryDy=0;strokeColor=default;align=center;verticalAlign=middle;fontFamily=Helvetica;fontSize=11;fontColor=default;labelBackgroundColor=default;startSize=4;endArrow=blockThin;endFill=1;endSize=4;" parent="1" source="FTZIcdEAymaVpWYv-aFH-58" target="FTZIcdEAymaVpWYv-aFH-104" edge="1">
                    <mxGeometry relative="1" as="geometry"/>
                </mxCell>
                <mxCell id="FTZIcdEAymaVpWYv-aFH-58" value="" style="rounded=0;fillColor=#D0D0D0;html=1;whiteSpace=wrap;" parent="1" vertex="1">
                    <mxGeometry x="200" y="140" width="130" height="50" as="geometry"/>
                </mxCell>
                <mxCell id="FTZIcdEAymaVpWYv-aFH-59" value="_valid&lt;b style=&quot;&quot;&gt;&lt;font face=&quot;Helvetica&quot;&gt;(ValidIO)&lt;/font&gt;&lt;/b&gt;" style="rounded=0;fillColor=none;strokeColor=none;fontFamily=Droid Sans Mono;fontSource=https%3A%2F%2Ffonts.googleapis.com%2Fcss%3Ffamily%3DDroid%2BSans%2BMono;fontSize=7;html=1;whiteSpace=wrap;" parent="1" vertex="1">
                    <mxGeometry x="215" y="144" width="64" height="10" as="geometry"/>
                </mxCell>
                <mxCell id="FTZIcdEAymaVpWYv-aFH-60" value="" style="endArrow=blockThin;html=1;rounded=0;endFill=1;endSize=4;startSize=4;jumpSize=4;" parent="1" edge="1">
                    <mxGeometry width="50" height="50" relative="1" as="geometry">
                        <mxPoint x="200" y="150" as="sourcePoint"/>
                        <mxPoint x="220" y="150" as="targetPoint"/>
                    </mxGeometry>
                </mxCell>
                <mxCell id="FTZIcdEAymaVpWYv-aFH-61" value="" style="endArrow=blockThin;html=1;rounded=0;endFill=1;endSize=4;startSize=4;jumpSize=4;" parent="1" edge="1">
                    <mxGeometry width="50" height="50" relative="1" as="geometry">
                        <mxPoint x="200" y="159.85000000000002" as="sourcePoint"/>
                        <mxPoint x="220" y="159.85000000000002" as="targetPoint"/>
                    </mxGeometry>
                </mxCell>
                <mxCell id="FTZIcdEAymaVpWYv-aFH-62" value="" style="endArrow=blockThin;html=1;rounded=0;endFill=1;endSize=4;startSize=4;jumpSize=4;" parent="1" edge="1">
                    <mxGeometry width="50" height="50" relative="1" as="geometry">
                        <mxPoint x="200" y="170" as="sourcePoint"/>
                        <mxPoint x="220" y="169.93" as="targetPoint"/>
                    </mxGeometry>
                </mxCell>
                <mxCell id="FTZIcdEAymaVpWYv-aFH-63" value="" style="endArrow=blockThin;html=1;rounded=0;endFill=1;endSize=4;startSize=4;jumpSize=4;" parent="1" edge="1">
                    <mxGeometry width="50" height="50" relative="1" as="geometry">
                        <mxPoint x="200" y="180" as="sourcePoint"/>
                        <mxPoint x="220" y="179.93" as="targetPoint"/>
                    </mxGeometry>
                </mxCell>
                <mxCell id="FTZIcdEAymaVpWYv-aFH-67" value="_bits_robIdx_flag&lt;font face=&quot;Helvetica&quot;&gt;&lt;b style=&quot;&quot;&gt;(RobPtr&lt;/b&gt;&lt;b style=&quot;&quot;&gt;)&lt;/b&gt;&lt;/font&gt;" style="rounded=0;fillColor=none;strokeColor=none;fontFamily=Droid Sans Mono;fontSource=https%3A%2F%2Ffonts.googleapis.com%2Fcss%3Ffamily%3DDroid%2BSans%2BMono;fontSize=7;html=1;whiteSpace=wrap;" parent="1" vertex="1">
                    <mxGeometry x="219" y="154" width="102" height="10" as="geometry"/>
                </mxCell>
                <mxCell id="FTZIcdEAymaVpWYv-aFH-68" value="_bits_robIdx_value&lt;b style=&quot;&quot;&gt;&lt;font face=&quot;Helvetica&quot;&gt;(RobPtr)&lt;/font&gt;&lt;/b&gt;" style="rounded=0;fillColor=none;strokeColor=none;fontFamily=Droid Sans Mono;fontSource=https%3A%2F%2Ffonts.googleapis.com%2Fcss%3Ffamily%3DDroid%2BSans%2BMono;fontSize=7;html=1;whiteSpace=wrap;" parent="1" vertex="1">
                    <mxGeometry x="219" y="164" width="106.5" height="10" as="geometry"/>
                </mxCell>
                <mxCell id="FTZIcdEAymaVpWYv-aFH-72" value="" style="rounded=0;fillColor=#D0D0D0;html=1;whiteSpace=wrap;" parent="1" vertex="1">
                    <mxGeometry x="200" y="100" width="130" height="30" as="geometry"/>
                </mxCell>
                <mxCell id="FTZIcdEAymaVpWYv-aFH-75" value="" style="endArrow=blockThin;html=1;rounded=0;endFill=1;endSize=4;startSize=4;jumpSize=4;" parent="1" edge="1">
                    <mxGeometry width="50" height="50" relative="1" as="geometry">
                        <mxPoint x="220" y="104.85000000000002" as="sourcePoint"/>
                        <mxPoint x="200" y="104.85000000000002" as="targetPoint"/>
                    </mxGeometry>
                </mxCell>
                <mxCell id="FTZIcdEAymaVpWYv-aFH-76" value="" style="endArrow=blockThin;html=1;rounded=0;endFill=1;endSize=4;startSize=4;jumpSize=4;" parent="1" edge="1">
                    <mxGeometry width="50" height="50" relative="1" as="geometry">
                        <mxPoint x="220" y="114.93" as="sourcePoint"/>
                        <mxPoint x="200" y="115" as="targetPoint"/>
                    </mxGeometry>
                </mxCell>
                <mxCell id="FTZIcdEAymaVpWYv-aFH-77" value="" style="endArrow=blockThin;html=1;rounded=0;endFill=1;endSize=4;startSize=4;jumpSize=4;" parent="1" edge="1">
                    <mxGeometry width="50" height="50" relative="1" as="geometry">
                        <mxPoint x="220" y="124.93" as="sourcePoint"/>
                        <mxPoint x="200" y="125" as="targetPoint"/>
                    </mxGeometry>
                </mxCell>
                <mxCell id="FTZIcdEAymaVpWYv-aFH-83" value="&lt;font style=&quot;font-size: 7px;&quot;&gt;_bits_ctrl_rfWen&lt;b style=&quot;&quot;&gt;&lt;font face=&quot;Helvetica&quot;&gt;(CtrlSignals)&lt;/font&gt;&lt;/b&gt;&lt;/font&gt;" style="rounded=0;fillColor=none;strokeColor=none;fontFamily=Droid Sans Mono;fontSource=https%3A%2F%2Ffonts.googleapis.com%2Fcss%3Ffamily%3DDroid%2BSans%2BMono;fontSize=7;html=1;whiteSpace=wrap;" parent="1" vertex="1">
                    <mxGeometry x="217" y="109" width="116" height="10" as="geometry"/>
                </mxCell>
                <mxCell id="FTZIcdEAymaVpWYv-aFH-84" value="_bits_pdest&lt;b style=&quot;&quot;&gt;&lt;font face=&quot;Helvetica&quot;&gt;(MicroOp)&lt;/font&gt;&lt;/b&gt;" style="rounded=0;fillColor=none;strokeColor=none;fontFamily=Droid Sans Mono;fontSource=https%3A%2F%2Ffonts.googleapis.com%2Fcss%3Ffamily%3DDroid%2BSans%2BMono;fontSize=7;html=1;whiteSpace=wrap;" parent="1" vertex="1">
                    <mxGeometry x="218" y="119" width="85" height="10" as="geometry"/>
                </mxCell>
                <mxCell id="FTZIcdEAymaVpWYv-aFH-85" value="_valid&lt;b style=&quot;&quot;&gt;&lt;font face=&quot;Helvetica&quot;&gt;(ValidIO)&lt;/font&gt;&lt;/b&gt;" style="rounded=0;fillColor=none;strokeColor=none;fontFamily=Droid Sans Mono;fontSource=https%3A%2F%2Ffonts.googleapis.com%2Fcss%3Ffamily%3DDroid%2BSans%2BMono;fontSize=7;html=1;whiteSpace=wrap;" parent="1" vertex="1">
                    <mxGeometry x="220" y="99" width="54" height="10" as="geometry"/>
                </mxCell>
                <mxCell id="FTZIcdEAymaVpWYv-aFH-87" value="&lt;div&gt;&lt;span style=&quot;font-weight: normal;&quot;&gt;To&lt;/span&gt;&amp;nbsp;&lt;span style=&quot;background-color: initial;&quot;&gt;&lt;i&gt;Issue Queue&lt;/i&gt;&lt;/span&gt;&lt;/div&gt;&lt;div&gt;&lt;font face=&quot;Helvetica&quot;&gt;MicroOp&lt;/font&gt;&amp;nbsp;&lt;span style=&quot;background-color: initial; font-weight: normal;&quot;&gt;io_out&lt;/span&gt;&lt;/div&gt;" style="rounded=0;fontFamily=Times New Roman;fontSize=12;fontStyle=1;rotation=0;html=1;whiteSpace=wrap;fillColor=#E5CCFF;" parent="1" vertex="1">
                    <mxGeometry x="90" y="100" width="110" height="30" as="geometry"/>
                </mxCell>
                <mxCell id="FTZIcdEAymaVpWYv-aFH-88" value="&lt;div&gt;&lt;span style=&quot;font-weight: normal;&quot;&gt;From&lt;/span&gt;&amp;nbsp;&lt;span style=&quot;background-color: initial;&quot;&gt;&lt;i&gt;Issue Queue&lt;/i&gt;&lt;/span&gt;&lt;/div&gt;&lt;div&gt;&lt;font face=&quot;Helvetica&quot;&gt;Redirect&lt;/font&gt; &lt;span style=&quot;font-weight: normal;&quot;&gt;redirect&lt;span style=&quot;background-color: initial;&quot;&gt;_in&lt;/span&gt;&lt;/span&gt;&lt;/div&gt;" style="rounded=0;fontFamily=Times New Roman;fontSize=12;fontStyle=1;rotation=0;html=1;whiteSpace=wrap;fillColor=#99FFCC;" parent="1" vertex="1">
                    <mxGeometry x="90" y="150" width="110" height="30" as="geometry"/>
                </mxCell>
                <mxCell id="FTZIcdEAymaVpWYv-aFH-89" value="WakeupQueue" style="rounded=0;fontFamily=Helvetica;fontSize=12;fontStyle=1;rotation=0;html=1;whiteSpace=wrap;strokeColor=none;fillColor=none;" parent="1" vertex="1">
                    <mxGeometry x="240.68" y="10" width="48.63" height="20" as="geometry"/>
                </mxCell>
                <mxCell id="FTZIcdEAymaVpWYv-aFH-90" value="" style="rounded=0;fillColor=none;html=1;whiteSpace=wrap;" parent="1" vertex="1">
                    <mxGeometry x="10" y="30" width="80" height="165" as="geometry"/>
                </mxCell>
                <mxCell id="FTZIcdEAymaVpWYv-aFH-93" value="&lt;div&gt;RS/&lt;/div&gt;IssueQueue" style="rounded=0;fontFamily=Helvetica;fontSize=12;fontStyle=1;rotation=0;html=1;whiteSpace=wrap;strokeColor=none;fillColor=none;" parent="1" vertex="1">
                    <mxGeometry x="25.689999999999998" y="100" width="48.63" height="20" as="geometry"/>
                </mxCell>
                <mxCell id="FTZIcdEAymaVpWYv-aFH-94" value="_bits_level&lt;b style=&quot;&quot;&gt;&lt;font face=&quot;Helvetica&quot;&gt;(Redirect)&lt;/font&gt;&lt;/b&gt;" style="rounded=0;fillColor=none;strokeColor=none;fontFamily=Droid Sans Mono;fontSource=https%3A%2F%2Ffonts.googleapis.com%2Fcss%3Ffamily%3DDroid%2BSans%2BMono;fontSize=7;html=1;whiteSpace=wrap;" parent="1" vertex="1">
                    <mxGeometry x="218" y="174" width="82" height="10" as="geometry"/>
                </mxCell>
                <mxCell id="FTZIcdEAymaVpWYv-aFH-103" value="" style="rounded=0;whiteSpace=wrap;html=1;fontFamily=Helvetica;fontSize=11;fontColor=default;labelBackgroundColor=default;fillColor=#00FFFF;" parent="1" vertex="1">
                    <mxGeometry x="337" y="71" width="66" height="11.5" as="geometry"/>
                </mxCell>
                <mxCell id="FTZIcdEAymaVpWYv-aFH-104" value="··· ···" style="rounded=0;whiteSpace=wrap;html=1;fontFamily=Helvetica;fontSize=7;fontColor=default;labelBackgroundColor=none;fillColor=#00FFFF;" parent="1" vertex="1">
                    <mxGeometry x="337" y="82.5" width="66" height="11.5" as="geometry"/>
                </mxCell>
                <mxCell id="FTZIcdEAymaVpWYv-aFH-110" style="edgeStyle=orthogonalEdgeStyle;shape=connector;rounded=0;jumpSize=4;orthogonalLoop=1;jettySize=auto;html=1;exitX=0.5;exitY=1;exitDx=0;exitDy=0;entryX=1;entryY=0.5;entryDx=0;entryDy=0;strokeColor=default;align=center;verticalAlign=middle;fontFamily=Helvetica;fontSize=11;fontColor=default;labelBackgroundColor=default;startSize=4;endArrow=blockThin;endFill=1;endSize=4;" parent="1" source="FTZIcdEAymaVpWYv-aFH-105" target="FTZIcdEAymaVpWYv-aFH-72" edge="1">
                    <mxGeometry relative="1" as="geometry">
                        <Array as="points">
                            <mxPoint x="370" y="115"/>
                        </Array>
                    </mxGeometry>
                </mxCell>
                <mxCell id="FTZIcdEAymaVpWYv-aFH-105" value="" style="rounded=0;whiteSpace=wrap;html=1;fontFamily=Helvetica;fontSize=11;fontColor=default;labelBackgroundColor=default;fillColor=#00FFFF;" parent="1" vertex="1">
                    <mxGeometry x="337" y="94" width="66" height="11.5" as="geometry"/>
                </mxCell>
                <mxCell id="FTZIcdEAymaVpWYv-aFH-113" value="&lt;div&gt;&lt;font style=&quot;&quot; face=&quot;Times New Roman&quot;&gt;&lt;span style=&quot;font-weight: 400;&quot;&gt;FIFO depth = FU fixed exec cycles &lt;/span&gt;&lt;i style=&quot;&quot;&gt;n&lt;/i&gt;&lt;/font&gt;&lt;/div&gt;" style="rounded=0;fontFamily=Times New Roman;fontSize=12;fontStyle=1;rotation=0;html=1;whiteSpace=wrap;fillColor=none;strokeColor=none;" parent="1" vertex="1">
                    <mxGeometry x="337" y="24" width="97" height="30" as="geometry"/>
                </mxCell>
            </root>
        </mxGraphModel>
    </diagram>
</mxfile>